#N canvas 47 56 1873 1024 10;
#X obj 374 477 ==;
#X obj 409 477 ==;
#X obj 401 327 spigot;
#X obj 436 371 spigot;
#X obj 540 16 initbang;
#X obj 540 93 symbol ctl;
#X obj 540 40 t b b;
#X obj 540 120 sel ctl note;
#X obj 340 328 spigot;
#X msg 540 147 1 0;
#X msg 574 147 0 1;
#X obj 374 499 &&;
#X obj 569 392 spigot;
#X obj 625 460 spigot;
#X obj 564 415 spigot;
#X obj 374 306 t f f;
#X obj 409 349 t f f;
#X obj 340 532 spigot;
#X obj 340 554 outlet;
#X obj 598 438 t f f;
#X obj 530 369 t b f f;
#X obj 530 438 f;
#X obj 540 174 unpack f f;
#X obj 469 235 gate 2;
#X obj 469 191 + 1;
#X obj 283 157 inlet;
#N canvas 277 28 667 735 save 0;
#X obj 201 188 f \$1;
#X msg 269 555 clear;
#X msg 337 591 print;
#X text 103 56 unique id (\$0) \, control number \, channel;
#X obj 121 659 s startfreeze;
#X obj 121 636 f \$0;
#X obj 87 174 bng 15 250 50 0 empty empty empty 17 7 0 10 -262144 -1
-1;
#X obj 178 220 pack f f f f;
#X msg 178 245 \; \$1-learnfreeze \$2 \$3 \$4 \;;
#X obj 178 96 r startfreeze;
#X obj 234 188 f;
#X obj 260 188 f;
#X obj 249 323 r \$0-learnfreeze;
#X obj 249 348 unpack f f f;
#X obj 291 434 f;
#X obj 319 434 f;
#X obj 211 434 counter;
#X obj 249 373 t b b b f;
#X obj 178 121 t f b b b;
#X obj 87 258 s \$0-reset;
#X obj 138 329 r \$0-reset;
#X msg 177 385 set 1;
#X obj 138 361 t b b b;
#X obj 78 463 r report-in;
#X obj 140 536 s report-out;
#X obj 121 512 delay 100;
#X obj 140 601 counter;
#X obj 121 488 t b b b;
#X msg 160 560 set 1;
#X obj 211 474 sel;
#X obj 497 328 r report-out;
#X obj 497 354 s report-in;
#X obj 87 203 savepanel;
#X obj 212 497 symbol;
#X msg 221 570 write \$1;
#X obj 68 22 inlet freeze;
#X obj 210 17 inlet control;
#X obj 314 20 inlet channel;
#X obj 72 118 route bang;
#X obj 87 230 t b a;
#X obj 125 166 symbol;
#X obj 280 628 textfile;
#X msg 308 505 add2 \$1;
#X msg 283 530 add \$1;
#X connect 0 0 7 1;
#X connect 1 0 41 0;
#X connect 2 0 41 0;
#X connect 5 0 4 0;
#X connect 6 0 32 0;
#X connect 7 0 8 0;
#X connect 9 0 18 0;
#X connect 10 0 7 2;
#X connect 11 0 7 3;
#X connect 12 0 13 0;
#X connect 13 0 17 0;
#X connect 13 1 14 1;
#X connect 13 2 15 1;
#X connect 14 0 43 0;
#X connect 15 0 42 0;
#X connect 16 0 29 0;
#X connect 17 0 16 0;
#X connect 17 1 14 0;
#X connect 17 2 15 0;
#X connect 17 3 42 0;
#X connect 18 0 7 0;
#X connect 18 1 0 0;
#X connect 18 2 10 0;
#X connect 18 3 11 0;
#X connect 20 0 22 0;
#X connect 21 0 16 0;
#X connect 22 0 27 0;
#X connect 22 1 1 0;
#X connect 22 2 21 0;
#X connect 23 0 26 0;
#X connect 25 0 5 0;
#X connect 26 0 29 1;
#X connect 27 0 25 0;
#X connect 27 1 24 0;
#X connect 27 2 28 0;
#X connect 28 0 26 0;
#X connect 29 0 33 0;
#X connect 30 0 31 0;
#X connect 32 0 39 0;
#X connect 33 0 34 0;
#X connect 34 0 41 0;
#X connect 35 0 38 0;
#X connect 36 0 10 1;
#X connect 37 0 11 1;
#X connect 38 0 6 0;
#X connect 38 1 40 0;
#X connect 39 0 19 0;
#X connect 39 1 33 1;
#X connect 40 0 39 0;
#X connect 42 0 41 0;
#X connect 43 0 41 0;
#X restore 283 477 pd save;
#X obj 609 147 b;
#X obj 567 65 symbol \$2;
#N canvas 792 158 486 645 load 0;
#X msg 203 322 read \$1;
#X msg 203 526 \; \$1-ch \$2 \; \$1-id \$3 \;;
#X obj 176 362 until;
#X obj 176 193 openpanel;
#X obj 176 71 inlet;
#X obj 176 144 bng 15 250 50 0 empty empty empty 17 7 0 10 -262144
-1 -1;
#X msg 188 277 rewind;
#X msg 227 363 clear;
#X msg 291 356 print;
#X obj 176 104 route bang;
#X obj 176 245 t b b a b;
#X obj 225 139 symbol;
#X obj 203 402 textfile;
#X connect 0 0 12 0;
#X connect 2 0 12 0;
#X connect 3 0 10 0;
#X connect 4 0 9 0;
#X connect 5 0 3 0;
#X connect 6 0 12 0;
#X connect 7 0 12 0;
#X connect 8 0 12 0;
#X connect 9 0 5 0;
#X connect 9 1 11 0;
#X connect 10 0 2 0;
#X connect 10 1 6 0;
#X connect 10 2 0 0;
#X connect 10 3 7 0;
#X connect 11 0 10 0;
#X connect 12 0 1 0;
#X connect 12 1 2 1;
#X restore 326 218 pd load;
#X obj 239 310 r \$1-id;
#X obj 289 325 r \$1-ch;
#X obj 283 196 route save load;
#X obj 502 213 != 0;
#X obj 606 16 loadbang;
#X obj 340 284 unpack f f f;
#X obj 340 263 inlet;
#X text 252 244 Control Value val.id.ch;
#X text 500 308 Note id.val.ch;
#X obj 530 347 unpack f f f;
#X obj 530 326 inlet;
#X text 245 47 Jóhannes Gunnar Þorsteinsson - 2015;
#X text 245 62 Original patch by Ben Baker-Smith - 2010;
#X text 245 78 CC BY 3 License;
#X connect 0 0 11 0;
#X connect 1 0 11 1;
#X connect 2 0 0 1;
#X connect 2 0 26 1;
#X connect 3 0 1 1;
#X connect 3 0 26 2;
#X connect 4 0 6 0;
#X connect 5 0 7 0;
#X connect 6 0 5 0;
#X connect 6 1 28 0;
#X connect 7 0 9 0;
#X connect 7 1 10 0;
#X connect 7 2 27 0;
#X connect 8 0 17 0;
#X connect 9 0 22 0;
#X connect 10 0 22 0;
#X connect 11 0 17 1;
#X connect 12 0 0 1;
#X connect 12 0 26 1;
#X connect 13 0 1 1;
#X connect 13 0 26 2;
#X connect 14 0 21 1;
#X connect 15 0 0 0;
#X connect 15 1 2 0;
#X connect 16 0 1 0;
#X connect 16 1 3 0;
#X connect 17 0 18 0;
#X connect 19 0 1 0;
#X connect 19 1 13 0;
#X connect 20 0 21 0;
#X connect 20 1 0 0;
#X connect 20 2 12 0;
#X connect 21 0 17 0;
#X connect 22 0 8 1;
#X connect 22 1 14 1;
#X connect 22 1 24 0;
#X connect 23 0 2 1;
#X connect 23 0 3 1;
#X connect 23 1 12 1;
#X connect 23 1 13 1;
#X connect 24 0 23 0;
#X connect 25 0 32 0;
#X connect 27 0 9 0;
#X connect 28 0 5 1;
#X connect 30 0 0 1;
#X connect 31 0 1 1;
#X connect 32 0 26 0;
#X connect 32 1 29 0;
#X connect 32 2 33 0;
#X connect 33 0 23 1;
#X connect 34 0 6 0;
#X connect 35 0 8 0;
#X connect 35 1 15 0;
#X connect 35 2 16 0;
#X connect 36 0 35 0;
#X connect 39 0 20 0;
#X connect 39 1 14 0;
#X connect 39 2 19 0;
#X connect 40 0 39 0;
